<svg width="100" height="100" viewBox="0 0 100 100" fill="none" xmlns="http://www.w3.org/2000/svg">
<path opacity="0.3" d="M50 29.1667C38.5 29.1667 29.1667 38.5 29.1667 50C29.1667 61.5 38.5 70.8334 50 70.8334C61.5 70.8334 70.8334 61.5 70.8334 50C70.8334 38.5 61.5 29.1667 50 29.1667ZM57.2917 33.3334C59.5834 33.3334 61.4584 35.2084 61.4584 37.5C61.4584 39.7917 59.5834 41.6667 57.2917 41.6667C55 41.6667 53.125 39.7917 53.125 37.5C53.125 35.2084 55 33.3334 57.2917 33.3334ZM42.7084 33.3334C45 33.3334 46.875 35.2084 46.875 37.5C46.875 39.7917 45 41.6667 42.7084 41.6667C40.4167 41.6667 38.5417 39.7917 38.5417 37.5C38.5417 35.2084 40.4167 33.3334 42.7084 33.3334ZM35.4167 54.1667C33.125 54.1667 31.25 52.2917 31.25 50C31.25 47.7084 33.125 45.8334 35.4167 45.8334C37.7084 45.8334 39.5834 47.7084 39.5834 50C39.5834 52.2917 37.7084 54.1667 35.4167 54.1667ZM42.7084 66.6667C40.4167 66.6667 38.5417 64.7917 38.5417 62.5C38.5417 60.2084 40.4167 58.3334 42.7084 58.3334C45 58.3334 46.875 60.2084 46.875 62.5C46.875 64.7917 45 66.6667 42.7084 66.6667ZM50 54.1667C47.7084 54.1667 45.8334 52.2917 45.8334 50C45.8334 47.7084 47.7084 45.8334 50 45.8334C52.2917 45.8334 54.1667 47.7084 54.1667 50C54.1667 52.2917 52.2917 54.1667 50 54.1667ZM57.2917 66.6667C55 66.6667 53.125 64.7917 53.125 62.5C53.125 60.2084 55 58.3334 57.2917 58.3334C59.5834 58.3334 61.4584 60.2084 61.4584 62.5C61.4584 64.7917 59.5834 66.6667 57.2917 66.6667ZM64.5834 54.1667C62.2917 54.1667 60.4167 52.2917 60.4167 50C60.4167 47.7084 62.2917 45.8334 64.5834 45.8334C66.875 45.8334 68.75 47.7084 68.75 50C68.75 52.2917 66.875 54.1667 64.5834 54.1667Z" fill="white"/>
<path d="M39.5833 50C39.5833 52.2916 37.7083 54.1666 35.4166 54.1666C33.125 54.1666 31.25 52.2916 31.25 50C31.25 47.7083 33.125 45.8333 35.4166 45.8333C37.7083 45.8333 39.5833 47.7083 39.5833 50ZM57.2916 41.6666C59.5833 41.6666 61.4583 39.7916 61.4583 37.5C61.4583 35.2083 59.5833 33.3333 57.2916 33.3333C55 33.3333 53.125 35.2083 53.125 37.5C53.125 39.7916 55 41.6666 57.2916 41.6666ZM42.7083 41.6666C45 41.6666 46.875 39.7916 46.875 37.5C46.875 35.2083 45 33.3333 42.7083 33.3333C40.4166 33.3333 38.5416 35.2083 38.5416 37.5C38.5416 39.7916 40.4166 41.6666 42.7083 41.6666ZM42.7083 58.3333C40.4166 58.3333 38.5416 60.2083 38.5416 62.5C38.5416 64.7916 40.4166 66.6666 42.7083 66.6666C45 66.6666 46.875 64.7916 46.875 62.5C46.875 60.2083 45 58.3333 42.7083 58.3333ZM91.6666 46.875V53.125C91.6666 54.8333 90.25 56.25 88.5416 56.25C86.8333 56.25 85.4166 54.8333 85.4166 53.125H79C78.3942 58.6977 76.1953 63.9778 72.6666 68.3333L77.2083 72.875L77.25 72.8333C78.4583 71.625 80.4583 71.625 81.6666 72.8333C82.875 74.0416 82.875 76.0416 81.6666 77.25L77.25 81.6666C76.0416 82.875 74.0416 82.875 72.8333 81.6666C72.2551 81.088 71.9269 80.3056 71.9191 79.4876C71.9113 78.6697 72.2246 77.8812 72.7916 77.2916L68.25 72.75C63.9012 76.2563 58.6371 78.4401 53.0833 79.0416V85.4583H53.125C54.8333 85.4583 56.25 86.875 56.25 88.5833C56.25 90.2916 54.8333 91.7083 53.125 91.7083H46.875C45.1666 91.7083 43.75 90.2916 43.75 88.5833C43.75 86.875 45.125 85.5 46.8333 85.4583V79C41.2912 78.4022 36.0393 76.2176 31.7083 72.7083L27.1666 77.25L27.2083 77.2916C28.4166 78.5 28.4166 80.5 27.2083 81.7083C26 82.9166 24 82.9166 22.7916 81.7083L18.3333 77.25C17.7521 76.6619 17.4262 75.8684 17.4262 75.0416C17.4262 74.2149 17.7521 73.4214 18.3333 72.8333C19.5416 71.625 21.5 71.625 22.7083 72.7916L27.25 68.25C23.7454 63.9202 21.5741 58.6657 21 53.125H14.5833C14.5833 54.8333 13.1666 56.25 11.4583 56.25C9.74998 56.25 8.33331 54.8333 8.33331 53.125V46.875C8.33331 45.1666 9.74998 43.75 11.4583 43.75C13.1666 43.75 14.5833 45.1666 14.5833 46.875H21C21.625 41.1666 23.875 36 27.25 31.75L22.7083 27.2083C21.5 28.375 19.5416 28.375 18.3333 27.1666C17.7521 26.5786 17.4262 25.7851 17.4262 24.9583C17.4262 24.1315 17.7521 23.3381 18.3333 22.75L22.75 18.3333C23.9583 17.125 25.9583 17.125 27.1666 18.3333C28.375 19.5416 28.375 21.5416 27.1666 22.75L27.125 22.7916L31.6666 27.3333C36.0037 23.8343 41.2525 21.6509 46.7916 21.0416V14.5833C45.9711 14.5692 45.1888 14.2341 44.6124 13.6499C44.036 13.0657 43.7115 12.279 43.7083 11.4583C43.7298 10.6291 44.0716 9.84043 44.662 9.25778C45.2524 8.67514 46.0455 8.34381 46.875 8.33331H53.125C54.8333 8.33331 56.25 9.74998 56.25 11.4583C56.25 13.1666 54.8333 14.5833 53.125 14.5833H53.0833V21C58.7916 21.5833 64 23.875 68.25 27.2916L72.7916 22.75C72.5059 22.4607 72.2801 22.1177 72.1275 21.7408C71.9748 21.3638 71.8982 20.9605 71.9021 20.5538C71.9059 20.1472 71.9902 19.7453 72.15 19.3714C72.3098 18.9974 72.5421 18.6588 72.8333 18.375C74.0416 17.1666 76.0416 17.1666 77.25 18.375L81.6666 22.7916C82.875 24 82.875 26 81.6666 27.2083C80.4583 28.4166 78.4583 28.4166 77.25 27.2083L77.2083 27.1666L72.6666 31.6666C76.1892 36.0258 78.3873 41.304 79 46.875H85.4166C85.4166 45.1666 86.8333 43.75 88.5416 43.75C90.25 43.75 91.6666 45.1666 91.6666 46.875ZM70.8333 50C70.8333 38.5 61.5 29.1666 50 29.1666C38.5 29.1666 29.1666 38.5 29.1666 50C29.1666 61.5 38.5 70.8333 50 70.8333C61.5 70.8333 70.8333 61.5 70.8333 50ZM50 45.8333C47.7083 45.8333 45.8333 47.7083 45.8333 50C45.8333 52.2916 47.7083 54.1666 50 54.1666C52.2916 54.1666 54.1666 52.2916 54.1666 50C54.1666 47.7083 52.2916 45.8333 50 45.8333ZM64.5833 45.8333C62.2916 45.8333 60.4166 47.7083 60.4166 50C60.4166 52.2916 62.2916 54.1666 64.5833 54.1666C66.875 54.1666 68.75 52.2916 68.75 50C68.75 47.7083 66.875 45.8333 64.5833 45.8333ZM57.2916 58.3333C55 58.3333 53.125 60.2083 53.125 62.5C53.125 64.7916 55 66.6666 57.2916 66.6666C59.5833 66.6666 61.4583 64.7916 61.4583 62.5C61.4583 60.2083 59.5833 58.3333 57.2916 58.3333Z" fill="white"/>
</svg>
