<svg width="35" height="35" viewBox="0 0 35 35" fill="none" xmlns="http://www.w3.org/2000/svg">
<path d="M29.1667 17.5C29.1667 20.5942 27.9376 23.5617 25.7497 25.7496C23.5617 27.9375 20.5943 29.1667 17.5001 29.1667C14.4059 29.1667 11.4384 27.9375 9.2505 25.7496C7.06258 23.5617 5.83341 20.5942 5.83341 17.5C5.83341 14.4058 7.06258 11.4384 9.2505 9.25044C11.4384 7.06252 14.4059 5.83335 17.5001 5.83335C20.5943 5.83335 23.5617 7.06252 25.7497 9.25044C27.9376 11.4384 29.1667 14.4058 29.1667 17.5ZM17.5001 32.0834C25.5545 32.0834 32.0834 25.5544 32.0834 17.5C32.0834 9.44565 25.5545 2.91669 17.5001 2.91669C9.44571 2.91669 2.91675 9.44565 2.91675 17.5C2.91675 25.5544 9.44571 32.0834 17.5001 32.0834ZM18.0222 13.6821C16.6047 14.2722 13.7702 15.4938 9.51862 17.3469C8.82737 17.6211 8.46571 17.8894 8.43362 18.1519C8.37821 18.5952 8.93383 18.7702 9.69071 19.0079L10.0086 19.11C10.7524 19.3521 11.7557 19.635 12.2763 19.6467C12.7488 19.6564 13.2758 19.462 13.8572 19.0634C17.8297 16.38 19.8801 15.0243 20.0084 14.9961C20.1003 14.9756 20.2257 14.9494 20.3103 15.0252C20.3963 15.1011 20.3876 15.244 20.3788 15.2834C20.3234 15.5181 18.1417 17.5467 17.013 18.5952C16.6786 18.9102 16.3465 19.2277 16.017 19.5475C15.3257 20.214 14.8065 20.7142 16.0461 21.5309C17.3017 22.3592 18.569 23.1846 19.794 24.0581C20.3978 24.4898 20.9403 24.8748 21.6111 24.815C22.0005 24.7786 22.403 24.4125 22.6072 23.3188C23.0913 20.7375 24.0407 15.1404 24.2595 12.8334C24.2722 12.642 24.2638 12.4498 24.2347 12.2602C24.2174 12.1077 24.1435 11.9671 24.0276 11.8665C23.8526 11.7236 23.5828 11.6944 23.4632 11.6959C22.9149 11.7061 22.0734 11.9977 18.0236 13.6821" fill="white"/>
</svg>
